# xmcd
#
# Track frame offsets: 
#        150
#        11604
#        24622
#        39793
#        51883
#        65697
#        77369
#        90136
#        103715
#        117342
#        130615
#        144188
#        158817
#        172660
#        186747
#        199913
#        212329
#        226053
#        240720
#        253393
#        266314
#        278921
#        291705
#        306638
#        320358
#        331463
#        346334
#
# Disc length: 4792 seconds
#
# Revision: 2
# Processed by: cddbd v1.5.2PL0 Copyright (c) Steve Scherf et al.
# Submitted via: ExactAudioCopy v0.99pb5
#
DISCID=7f12b61b
DTITLE=Vaughan Sarah - Street of dreams - CD 1
DYEAR=1900
DGENRE=Jazz
TTITLE0=Interlude (A night in Tunisia)
TTITLE1=East  of the sun
TTITLE2=Lover man
TTITLE3=Mean to me
TTITLE4=What more can a woman do
TTITLE5=I'm scared
TTITLE6=If you coould see me now
TTITLE7=You're not the kind
TTITLE8=You're blasé
TTITLE9=Body and soul
TTITLE10=I've got a crush on you
TTITLE11=Penthouse serenade
TTITLE12=September song
TTITLE13=Time after time
TTITLE14=I cover the waterfront
TTITLE15=I don't stand a ghost of a chance with you
TTITLE16=Tenderly
TTITLE17=Don't blame me
TTITLE18=Sometimes I feel like a motherless child
TTITLE19=I get a kick out of you
TTITLE20=The man I love
TTITLE21=What a difference a day made
TTITLE22=Black coffee
TTITLE23=Just friends
TTITLE24=I cried for you
TTITLE25=Summertime
TTITLE26=Mean to me
EXTD=
EXTT0=
EXTT1=
EXTT2=
EXTT3=
EXTT4=
EXTT5=
EXTT6=
EXTT7=
EXTT8=
EXTT9=
EXTT10=
EXTT11=
EXTT12=
EXTT13=
EXTT14=
EXTT15=
EXTT16=
EXTT17=
EXTT18=
EXTT19=
EXTT20=
EXTT21=
EXTT22=
EXTT23=
EXTT24=
EXTT25=
EXTT26=
PLAYORDER=
